<svg xmlns="http://www.w3.org/2000/svg" height="174" width="174">
  <path d="M12 12h6v6h-6zm6 0h6v6h-6zm6 0h6v6h-6zm6 0h6v6h-6zm6 0h6v6h-6zm6 0h6v6h-6zm6 0h6v6h-6zm24 0h6v6h-6zm30 0h6v6h-6zm18 0h6v6h-6zm6 0h6v6h-6zm6 0h6v6h-6zm6 0h6v6h-6zm6 0h6v6h-6zm6 0h6v6h-6zm6 0h6v6h-6zM12 18h6v6h-6zm36 0h6v6h-6zm18 0h6v6h-6zm24 0h6v6h-6zm6 0h6v6h-6zm6 0h6v6h-6zm6 0h6v6h-6zm12 0h6v6h-6zm36 0h6v6h-6zM12 24h6v6h-6zm12 0h6v6h-6zm6 0h6v6h-6zm6 0h6v6h-6zm12 0h6v6h-6zm12 0h6v6h-6zm18 0h6v6h-6zm18 0h6v6h-6zm12 0h6v6h-6zm12 0h6v6h-6zm12 0h6v6h-6zm6 0h6v6h-6zm6 0h6v6h-6zm12 0h6v6h-6zM12 30h6v6h-6zm12 0h6v6h-6zm6 0h6v6h-6zm6 0h6v6h-6zm12 0h6v6h-6zm18 0h6v6h-6zm36 0h6v6h-6zm18 0h6v6h-6zm12 0h6v6h-6zm6 0h6v6h-6zm6 0h6v6h-6zm12 0h6v6h-6zM12 36h6v6h-6zm12 0h6v6h-6zm6 0h6v6h-6zm6 0h6v6h-6zm12 0h6v6h-6zm18 0h6v6h-6zm18 0h6v6h-6zm6 0h6v6h-6zm6 0h6v6h-6zm6 0h6v6h-6zm18 0h6v6h-6zm12 0h6v6h-6zm6 0h6v6h-6zm6 0h6v6h-6zm12 0h6v6h-6zM12 42h6v6h-6zm36 0h6v6h-6zm24 0h6v6h-6zm6 0h6v6h-6zm6 0h6v6h-6zm12 0h6v6h-6zm6 0h6v6h-6zm18 0h6v6h-6zm36 0h6v6h-6zM12 48h6v6h-6zm6 0h6v6h-6zm6 0h6v6h-6zm6 0h6v6h-6zm6 0h6v6h-6zm6 0h6v6h-6zm6 0h6v6h-6zm12 0h6v6h-6zm12 0h6v6h-6zm12 0h6v6h-6zm12 0h6v6h-6zm12 0h6v6h-6zm12 0h6v6h-6zm6 0h6v6h-6zm6 0h6v6h-6zm6 0h6v6h-6zm6 0h6v6h-6zm6 0h6v6h-6zm6 0h6v6h-6zm-96 6h6v6h-6zm24 0h6v6h-6zm6 0h6v6h-6zm12 0h6v6h-6zm6 0h6v6h-6zm-96 6h6v6h-6zm6 0h6v6h-6zm6 0h6v6h-6zm12 0h6v6h-6zm6 0h6v6h-6zm6 0h6v6h-6zm6 0h6v6h-6zm6 0h6v6h-6zm18 0h6v6h-6zm6 0h6v6h-6zm6 0h6v6h-6zm12 0h6v6h-6zm6 0h6v6h-6zm6 0h6v6h-6zm6 0h6v6h-6zm24 0h6v6h-6zM36 66h6v6h-6zm6 0h6v6h-6zm12 0h6v6h-6zm12 0h6v6h-6zm18 0h6v6h-6zm6 0h6v6h-6zm18 0h6v6h-6zm12 0h6v6h-6zm36 0h6v6h-6zM24 72h6v6h-6zm6 0h6v6h-6zm18 0h6v6h-6zm24 0h6v6h-6zm18 0h6v6h-6zm30 0h6v6h-6zm6 0h6v6h-6zm6 0h6v6h-6zm12 0h6v6h-6zm6 0h6v6h-6zm6 0h6v6h-6zM12 78h6v6h-6zm12 0h6v6h-6zm6 0h6v6h-6zm36 0h6v6h-6zm6 0h6v6h-6zm6 0h6v6h-6zm12 0h6v6h-6zm6 0h6v6h-6zm6 0h6v6h-6zm12 0h6v6h-6zm6 0h6v6h-6zm6 0h6v6h-6zm24 0h6v6h-6zM12 84h6v6h-6zm18 0h6v6h-6zm18 0h6v6h-6zm6 0h6v6h-6zm18 0h6v6h-6zm6 0h6v6h-6zm6 0h6v6h-6zm6 0h6v6h-6zm12 0h6v6h-6zm6 0h6v6h-6zm6 0h6v6h-6zm6 0h6v6h-6zm18 0h6v6h-6zm12 0h6v6h-6zm6 0h6v6h-6zM18 90h6v6h-6zm24 0h6v6h-6zm18 0h6v6h-6zm6 0h6v6h-6zm6 0h6v6h-6zm12 0h6v6h-6zm24 0h6v6h-6zm6 0h6v6h-6zm6 0h6v6h-6zm18 0h6v6h-6zm18 0h6v6h-6zM12 96h6v6h-6zm12 0h6v6h-6zm12 0h6v6h-6zm12 0h6v6h-6zm24 0h6v6h-6zm12 0h6v6h-6zm12 0h6v6h-6zm18 0h6v6h-6zm12 0h6v6h-6zm18 0h6v6h-6zm6 0h6v6h-6zm6 0h6v6h-6zm-138 6h6v6h-6zm42 0h6v6h-6zm6 0h6v6h-6zm6 0h6v6h-6zm12 0h6v6h-6zm6 0h6v6h-6zm6 0h6v6h-6zm6 0h6v6h-6zm6 0h6v6h-6zm6 0h6v6h-6zm6 0h6v6h-6zm12 0h6v6h-6zm18 0h6v6h-6zm-138 6h6v6h-6zm18 0h6v6h-6zm12 0h6v6h-6zm6 0h6v6h-6zm6 0h6v6h-6zm12 0h6v6h-6zm12 0h6v6h-6zm6 0h6v6h-6zm6 0h6v6h-6zm18 0h6v6h-6zm6 0h6v6h-6zm6 0h6v6h-6zm6 0h6v6h-6zm6 0h6v6h-6zm6 0h6v6h-6zm-78 6h6v6h-6zm30 0h6v6h-6zm6 0h6v6h-6zm6 0h6v6h-6zm6 0h6v6h-6zm24 0h6v6h-6zm6 0h6v6h-6zm12 0h6v6h-6zm6 0h6v6h-6zm-144 6h6v6h-6zm6 0h6v6h-6zm6 0h6v6h-6zm6 0h6v6h-6zm6 0h6v6h-6zm6 0h6v6h-6zm6 0h6v6h-6zm12 0h6v6h-6zm12 0h6v6h-6zm12 0h6v6h-6zm18 0h6v6h-6zm6 0h6v6h-6zm12 0h6v6h-6zm12 0h6v6h-6zm6 0h6v6h-6zm12 0h6v6h-6zm6 0h6v6h-6zm-144 6h6v6h-6zm36 0h6v6h-6zm12 0h6v6h-6zm6 0h6v6h-6zm6 0h6v6h-6zm18 0h6v6h-6zm18 0h6v6h-6zm24 0h6v6h-6zm6 0h6v6h-6zm12 0h6v6h-6zm-138 6h6v6h-6zm12 0h6v6h-6zm6 0h6v6h-6zm6 0h6v6h-6zm12 0h6v6h-6zm12 0h6v6h-6zm6 0h6v6h-6zm18 0h6v6h-6zm6 0h6v6h-6zm18 0h6v6h-6zm6 0h6v6h-6zm6 0h6v6h-6zm6 0h6v6h-6zm6 0h6v6h-6zm6 0h6v6h-6zm12 0h6v6h-6zm-138 6h6v6h-6zm12 0h6v6h-6zm6 0h6v6h-6zm6 0h6v6h-6zm12 0h6v6h-6zm18 0h6v6h-6zm6 0h6v6h-6zm12 0h6v6h-6zm18 0h6v6h-6zm6 0h6v6h-6zm18 0h6v6h-6zm6 0h6v6h-6zm6 0h6v6h-6zm6 0h6v6h-6zm-132 6h6v6h-6zm12 0h6v6h-6zm6 0h6v6h-6zm6 0h6v6h-6zm12 0h6v6h-6zm12 0h6v6h-6zm12 0h6v6h-6zm24 0h6v6h-6zm6 0h6v6h-6zm30 0h6v6h-6zm24 0h6v6h-6zm-144 6h6v6h-6zm36 0h6v6h-6zm12 0h6v6h-6zm12 0h6v6h-6zm6 0h6v6h-6zm6 0h6v6h-6zm6 0h6v6h-6zm12 0h6v6h-6zm6 0h6v6h-6zm12 0h6v6h-6zm12 0h6v6h-6zm6 0h6v6h-6zm12 0h6v6h-6zm-138 6h6v6h-6zm6 0h6v6h-6zm6 0h6v6h-6zm6 0h6v6h-6zm6 0h6v6h-6zm6 0h6v6h-6zm6 0h6v6h-6zm12 0h6v6h-6zm6 0h6v6h-6zm24 0h6v6h-6zm12 0h6v6h-6zm6 0h6v6h-6zm6 0h6v6h-6zm12 0h6v6h-6zm24 0h6v6h-6zm6 0h6v6h-6z"/>
</svg>